<svg width="689" height="219" viewBox="0 0 689 219" fill="none" xmlns="http://www.w3.org/2000/svg">
<path d="M657 163.688H672.938V166.062H657V202.438C657 206.812 657.75 209.938 659.25 211.812C660.042 212.854 661.083 213.667 662.375 214.25C663.667 214.833 665.062 215.125 666.562 215.125C668.438 215.125 670 214.75 671.25 214C672.5 213.208 673.875 211.792 675.375 209.75L676.312 210.562C674.938 213.062 673 214.917 670.5 216.125C668.042 217.333 664.958 217.938 661.25 217.938C656.333 217.938 652.75 216.979 650.5 215.062C649.292 214.062 648.5 212.875 648.125 211.5C647.75 210.083 647.562 207.562 647.562 203.938V166.062H640.875V165.062C643.583 164.188 646.083 162.5 648.375 160C649.75 158.458 650.854 156.938 651.688 155.438C652.521 153.896 653.312 151.917 654.062 149.5L654.688 147.438H657V163.688Z" stroke="#AB8A29"/>
<path d="M592 162.625C592.583 165.042 592.875 167.292 592.875 169.375V170.375C598.042 165.292 604.188 162.75 611.312 162.75C616.646 162.75 620.938 164 624.188 166.5C627.396 168.958 629 172.458 629 177V203.5C629 206.333 629.167 208.417 629.5 209.75C629.833 211.042 630.479 212.125 631.438 213C632.604 214.125 634.75 214.979 637.875 215.562V216.812H610.312V215.562C612.812 215.229 614.604 214.771 615.688 214.188C616.771 213.562 617.646 212.521 618.312 211.062C618.771 210.104 619.083 208.667 619.25 206.75C619.458 204.792 619.562 202 619.562 198.375V185.125C619.562 180.583 619.396 177.25 619.062 175.125C618.771 173 618.188 171.292 617.312 170C616.354 168.542 614.979 167.417 613.188 166.625C611.396 165.792 609.417 165.375 607.25 165.375C604.917 165.375 602.729 165.833 600.688 166.75C598.688 167.667 597.104 168.917 595.938 170.5C594.688 172.167 593.854 174.062 593.438 176.188C593.062 178.271 592.875 181.75 592.875 186.625V198.875L592.938 203.5C592.938 206.333 593.104 208.417 593.438 209.75C593.771 211.042 594.417 212.125 595.375 213C596.542 214.125 598.688 214.979 601.812 215.562V216.812H574.25V215.562C576.75 215.229 578.542 214.771 579.625 214.188C580.708 213.562 581.583 212.521 582.25 211.062C582.708 210.104 583.021 208.667 583.188 206.75C583.396 204.792 583.5 201.979 583.5 198.312V182.875C583.5 178.583 583.396 175.583 583.188 173.875C582.979 172.125 582.521 170.708 581.812 169.625C581.104 168.458 580.25 167.625 579.25 167.125C578.25 166.583 576.812 166.25 574.938 166.125V164.875L592 162.625Z" stroke="#AB8A29"/>
<path d="M510.125 190.438C510.125 183.688 512.625 177.667 517.625 172.375C523.708 165.958 530.979 162.75 539.438 162.75C547.896 162.75 555.146 165.958 561.188 172.375C566.188 177.708 568.688 183.75 568.688 190.5C568.688 197.167 566.312 203.104 561.562 208.312C555.729 214.729 548.354 217.938 539.438 217.938C530.521 217.938 523.125 214.729 517.25 208.312C514.958 205.812 513.188 203.021 511.938 199.938C510.729 196.854 510.125 193.688 510.125 190.438ZM521.5 189.75C521.5 197 523.125 203.146 526.375 208.188C530.042 213.812 534.521 216.625 539.812 216.625C542.062 216.625 544.25 216 546.375 214.75C548.5 213.5 550.333 211.75 551.875 209.5C553.5 207.167 554.812 204.25 555.812 200.75C556.812 197.208 557.312 193.792 557.312 190.5C557.312 187.083 556.771 183.646 555.688 180.188C554.646 176.688 553.229 173.688 551.438 171.188C548.021 166.479 543.833 164.125 538.875 164.125C534.167 164.125 530.104 166.604 526.688 171.562C523.229 176.521 521.5 182.583 521.5 189.75Z" stroke="#AB8A29"/>
<path d="M459.125 162.625C459.708 165.042 460 167.292 460 169.375V170.375C465.167 165.292 471.312 162.75 478.438 162.75C483.771 162.75 488.062 164 491.312 166.5C494.521 168.958 496.125 172.458 496.125 177V203.5C496.125 206.333 496.292 208.417 496.625 209.75C496.958 211.042 497.604 212.125 498.562 213C499.729 214.125 501.875 214.979 505 215.562V216.812H477.438V215.562C479.938 215.229 481.729 214.771 482.812 214.188C483.896 213.562 484.771 212.521 485.438 211.062C485.896 210.104 486.208 208.667 486.375 206.75C486.583 204.792 486.688 202 486.688 198.375V185.125C486.688 180.583 486.521 177.25 486.188 175.125C485.896 173 485.312 171.292 484.438 170C483.479 168.542 482.104 167.417 480.312 166.625C478.521 165.792 476.542 165.375 474.375 165.375C472.042 165.375 469.854 165.833 467.812 166.75C465.812 167.667 464.229 168.917 463.062 170.5C461.812 172.167 460.979 174.062 460.562 176.188C460.188 178.271 460 181.75 460 186.625V198.875L460.062 203.5C460.062 206.333 460.229 208.417 460.562 209.75C460.896 211.042 461.542 212.125 462.5 213C463.667 214.125 465.812 214.979 468.938 215.562V216.812H441.375V215.562C443.875 215.229 445.667 214.771 446.75 214.188C447.833 213.562 448.708 212.521 449.375 211.062C449.833 210.104 450.146 208.667 450.312 206.75C450.521 204.792 450.625 201.979 450.625 198.312V182.875C450.625 178.583 450.521 175.583 450.312 173.875C450.104 172.125 449.646 170.708 448.938 169.625C448.229 168.458 447.375 167.625 446.375 167.125C445.375 166.583 443.938 166.25 442.062 166.125V164.875L459.125 162.625Z" stroke="#AB8A29"/>
<path d="M440.188 210.75L441.25 211.375C439.75 215.75 436.312 217.938 430.938 217.938C427.979 217.938 425.521 217.208 423.562 215.75C422.271 214.792 420.938 213.125 419.562 210.75C416.771 213.25 414.667 214.896 413.25 215.688C410.542 217.188 407.396 217.938 403.812 217.938C399.229 217.938 395.583 216.833 392.875 214.625C390.208 212.417 388.875 209.438 388.875 205.688C388.875 202.229 389.979 199.333 392.188 197C393.438 195.708 394.875 194.688 396.5 193.938C398.125 193.146 400.479 192.354 403.562 191.562C407.188 190.646 409.854 189.875 411.562 189.25C413.312 188.625 414.771 187.875 415.938 187C417.271 186.042 418.188 184.917 418.688 183.625C419.188 182.333 419.438 180.542 419.438 178.25C419.438 173.375 418.521 169.812 416.688 167.562C415.854 166.521 414.771 165.688 413.438 165.062C412.146 164.438 410.792 164.125 409.375 164.125C407.667 164.125 406.146 164.562 404.812 165.438C403.479 166.312 402.479 167.521 401.812 169.062L400.25 172.688C399.417 174.646 397.917 175.625 395.75 175.625C394.333 175.625 393.146 175.167 392.188 174.25C391.229 173.292 390.75 172.104 390.75 170.688C390.75 168.562 392.25 166.771 395.25 165.312C396.875 164.562 398.875 163.958 401.25 163.5C403.667 163 406.021 162.75 408.312 162.75C410.896 162.75 413.583 163.083 416.375 163.75C419.167 164.417 421.5 165.271 423.375 166.312C426.083 167.854 427.771 169.854 428.438 172.312C428.771 173.562 428.938 175.667 428.938 178.625V201.75C428.938 205.667 429.104 208.333 429.438 209.75C430.146 212.708 431.854 214.188 434.562 214.188C435.854 214.188 436.854 213.958 437.562 213.5C438.312 213.042 439.188 212.125 440.188 210.75ZM419.562 186.125C417.312 188 414.833 189.646 412.125 191.062C409.083 192.688 406.979 193.917 405.812 194.75C404.646 195.583 403.583 196.583 402.625 197.75C400.667 200.167 399.688 202.979 399.688 206.188C399.688 208.938 400.438 211.208 401.938 213C403.479 214.792 405.417 215.688 407.75 215.688C409.792 215.688 411.708 215.062 413.5 213.812C415.333 212.521 416.708 210.812 417.625 208.688C418.917 205.896 419.562 201.854 419.562 196.562V186.125Z" stroke="#AB8A29"/>
<path d="M338.25 129V171.812C339.708 170.021 341 168.625 342.125 167.625C343.25 166.625 344.604 165.75 346.188 165C349.229 163.5 352.688 162.75 356.562 162.75C361.479 162.75 365.542 163.729 368.75 165.688C371.042 167.146 372.604 168.938 373.438 171.062C374.312 173.146 374.75 176.292 374.75 180.5V198.75L374.812 203.5C374.812 206.333 374.979 208.417 375.312 209.75C375.646 211.042 376.292 212.125 377.25 213C378.417 214.125 380.562 214.979 383.688 215.562V216.812H356.125V215.562C358.333 215.271 359.896 214.917 360.812 214.5C361.771 214.083 362.625 213.375 363.375 212.375C364.125 211.333 364.646 209.917 364.938 208.125C365.229 206.333 365.375 203.688 365.375 200.188V180.375C365.375 177.375 365.146 175 364.688 173.25C364.229 171.5 363.458 169.979 362.375 168.688C360.25 166.229 357.25 165 353.375 165C343.292 165 338.25 172.958 338.25 188.875V198.875L338.312 203.5C338.312 206.333 338.479 208.417 338.812 209.75C339.146 211.042 339.792 212.125 340.75 213C341.917 214.125 344.062 214.979 347.188 215.562V216.812H319.625V215.562C322.125 215.229 323.917 214.771 325 214.188C326.083 213.562 326.958 212.521 327.625 211.062C328.083 210.104 328.396 208.667 328.562 206.75C328.771 204.792 328.875 201.979 328.875 198.312V149.25C328.875 145 328.771 142 328.562 140.25C328.354 138.5 327.896 137.083 327.188 136C326.479 134.833 325.625 134 324.625 133.5C323.625 133 322.188 132.688 320.312 132.562V131.25L338.25 129Z" stroke="#AB8A29"/>
<path d="M313.125 205L314.375 205.438C312.917 209.854 310.688 213.042 307.688 215C304.688 216.958 300.562 217.938 295.312 217.938C286.896 217.938 280.292 215.438 275.5 210.438C270.833 205.521 268.5 199.312 268.5 191.812C268.5 188.146 269.146 184.521 270.438 180.938C271.729 177.354 273.5 174.292 275.75 171.75C278.292 168.833 281.396 166.604 285.062 165.062C288.771 163.521 292.812 162.75 297.188 162.75C303.229 162.75 307.958 164.104 311.375 166.812C313.458 168.479 314.5 170.312 314.5 172.312C314.5 173.646 314.062 174.771 313.188 175.688C312.312 176.562 311.25 177 310 177C307.292 177 305.292 175.021 304 171.062C303.417 169.229 302.938 167.979 302.562 167.312C302.229 166.646 301.729 166.062 301.062 165.562C299.771 164.604 298.188 164.125 296.312 164.125C293.854 164.125 291.583 164.812 289.5 166.188C287.667 167.396 286.104 168.917 284.812 170.75C283.562 172.542 282.458 174.812 281.5 177.562C280.042 181.771 279.312 185.896 279.312 189.938C279.312 193.646 279.979 197.271 281.312 200.812C282.646 204.354 284.458 207.312 286.75 209.688C290.333 213.438 294.542 215.312 299.375 215.312C303.375 215.312 306.688 214.042 309.312 211.5C310.646 210.167 311.917 208 313.125 205Z" stroke="#AB8A29"/>
<path d="M249.25 163.688H265.188V166.062H249.25V202.438C249.25 206.812 250 209.938 251.5 211.812C252.292 212.854 253.333 213.667 254.625 214.25C255.917 214.833 257.312 215.125 258.812 215.125C260.688 215.125 262.25 214.75 263.5 214C264.75 213.208 266.125 211.792 267.625 209.75L268.562 210.562C267.188 213.062 265.25 214.917 262.75 216.125C260.292 217.333 257.208 217.938 253.5 217.938C248.583 217.938 245 216.979 242.75 215.062C241.542 214.062 240.75 212.875 240.375 211.5C240 210.083 239.812 207.562 239.812 203.938V166.062H233.125V165.062C235.833 164.188 238.333 162.5 240.625 160C242 158.458 243.104 156.938 243.938 155.438C244.771 153.896 245.562 151.917 246.312 149.5L246.938 147.438H249.25V163.688Z" stroke="#AB8A29"/>
<path d="M231.938 210.75L233 211.375C231.5 215.75 228.062 217.938 222.688 217.938C219.729 217.938 217.271 217.208 215.312 215.75C214.021 214.792 212.688 213.125 211.312 210.75C208.521 213.25 206.417 214.896 205 215.688C202.292 217.188 199.146 217.938 195.562 217.938C190.979 217.938 187.333 216.833 184.625 214.625C181.958 212.417 180.625 209.438 180.625 205.688C180.625 202.229 181.729 199.333 183.938 197C185.188 195.708 186.625 194.688 188.25 193.938C189.875 193.146 192.229 192.354 195.312 191.562C198.938 190.646 201.604 189.875 203.312 189.25C205.062 188.625 206.521 187.875 207.688 187C209.021 186.042 209.938 184.917 210.438 183.625C210.938 182.333 211.188 180.542 211.188 178.25C211.188 173.375 210.271 169.812 208.438 167.562C207.604 166.521 206.521 165.688 205.188 165.062C203.896 164.438 202.542 164.125 201.125 164.125C199.417 164.125 197.896 164.562 196.562 165.438C195.229 166.312 194.229 167.521 193.562 169.062L192 172.688C191.167 174.646 189.667 175.625 187.5 175.625C186.083 175.625 184.896 175.167 183.938 174.25C182.979 173.292 182.5 172.104 182.5 170.688C182.5 168.562 184 166.771 187 165.312C188.625 164.562 190.625 163.958 193 163.5C195.417 163 197.771 162.75 200.062 162.75C202.646 162.75 205.333 163.083 208.125 163.75C210.917 164.417 213.25 165.271 215.125 166.312C217.833 167.854 219.521 169.854 220.188 172.312C220.521 173.562 220.688 175.667 220.688 178.625V201.75C220.688 205.667 220.854 208.333 221.188 209.75C221.896 212.708 223.604 214.188 226.312 214.188C227.604 214.188 228.604 213.958 229.312 213.5C230.062 213.042 230.938 212.125 231.938 210.75ZM211.312 186.125C209.062 188 206.583 189.646 203.875 191.062C200.833 192.688 198.729 193.917 197.562 194.75C196.396 195.583 195.333 196.583 194.375 197.75C192.417 200.167 191.438 202.979 191.438 206.188C191.438 208.938 192.188 211.208 193.688 213C195.229 214.792 197.167 215.688 199.5 215.688C201.542 215.688 203.458 215.062 205.25 213.812C207.083 212.521 208.458 210.812 209.375 208.688C210.667 205.896 211.312 201.854 211.312 196.562V186.125Z" stroke="#AB8A29"/>
<path d="M123.812 175.062V197.188C123.812 201.438 124.042 204.604 124.5 206.688C125 208.729 125.896 210.417 127.188 211.75C128.312 212.917 129.604 213.792 131.062 214.375C132.562 214.917 134.521 215.25 136.938 215.375V216.812H97V215.375C99.4167 215.25 101.354 214.917 102.812 214.375C104.312 213.792 105.625 212.917 106.75 211.75C108.083 210.417 108.979 208.729 109.438 206.688C109.896 204.646 110.125 201.479 110.125 197.188V151.125C110.125 146.833 109.896 143.667 109.438 141.625C108.979 139.583 108.083 137.896 106.75 136.562C105.625 135.354 104.312 134.479 102.812 133.938C101.312 133.396 99.375 133.062 97 132.938V131.5H127.125C132.167 131.5 135.479 131.521 137.062 131.562C143.521 131.854 148.583 132.729 152.25 134.188C156.375 135.854 159.562 138.354 161.812 141.688C164.104 144.979 165.25 148.812 165.25 153.188C165.25 159.688 162.792 164.896 157.875 168.812C156.375 169.979 154.708 170.938 152.875 171.688C151.083 172.438 148.667 173.146 145.625 173.812C148.125 174.854 149.979 175.938 151.188 177.062C152.146 177.938 153.021 179.042 153.812 180.375C154.604 181.667 155.792 183.979 157.375 187.312C161.083 194.938 163.875 200.521 165.75 204.062C167.667 207.562 169.271 210.104 170.562 211.688C171.604 212.979 172.604 213.875 173.562 214.375C174.562 214.875 175.917 215.208 177.625 215.375V216.812H156.875C155.833 214.521 155.167 213.062 154.875 212.438L150.5 202.5C147.875 196.542 145.229 191.271 142.562 186.688C139.896 182.146 137.458 179.042 135.25 177.375C134.125 176.542 132.917 175.958 131.625 175.625C130.333 175.25 128.75 175.062 126.875 175.062H123.812ZM123.812 173.688H126.188C131.354 173.688 135.042 173.396 137.25 172.812C139.5 172.229 141.604 171.021 143.562 169.188C147.938 165.021 150.125 159.854 150.125 153.688C150.125 150.396 149.479 147.312 148.188 144.438C146.938 141.521 145.188 139.125 142.938 137.25C141.188 135.833 139.104 134.854 136.688 134.312C134.271 133.729 130.833 133.438 126.375 133.438H123.812V173.688Z" stroke="#AB8A29"/>
<path d="M634.5 36.875L655.375 65.875C658.292 60.4167 660.333 56.2292 661.5 53.3125C662.667 50.3958 663.25 47.9167 663.25 45.875C663.25 41.8333 660.354 39.3958 654.562 38.5625V37.3125H678.875V38.5625C676.958 38.7292 675.396 39.0625 674.188 39.5625C672.979 40.0208 671.833 40.75 670.75 41.75C668.625 43.75 666 48 662.875 54.5L660.938 58.5C659.896 60.75 658.375 63.6875 656.375 67.3125C657.958 69.3958 659.812 71.6458 661.938 74.0625C664.104 76.4375 666.021 78.3958 667.688 79.9375C670.062 82.1042 672.125 83.6875 673.875 84.6875C675.667 85.6458 677.396 86.125 679.062 86.125C680.854 86.125 682.354 85.625 683.562 84.625C684.771 83.625 685.833 82 686.75 79.75L688 80.3125C685.917 87.3958 681.438 90.9375 674.562 90.9375C672.271 90.9375 669.875 90.5 667.375 89.625C664.875 88.75 662.604 87.5417 660.562 86C657.438 83.6667 654.208 80.5208 650.875 76.5625C649.042 79.2292 647.542 81.2292 646.375 82.5625C643.958 85.2708 641.125 87.3542 637.875 88.8125C634.667 90.2292 631.229 90.9375 627.562 90.9375C624.188 90.9375 620.917 90.3125 617.75 89.0625C614.625 87.8125 612.062 86.1042 610.062 83.9375C606.354 79.9792 604.5 74.9792 604.5 68.9375C604.5 62.9792 606.292 57.5625 609.875 52.6875C611.292 50.7708 612.979 48.9792 614.938 47.3125C616.938 45.6042 619.667 43.625 623.125 41.375L624.125 40.6875C621.542 37.0208 619.708 34.125 618.625 32C616.083 27.0833 614.812 22.6875 614.812 18.8125C614.812 16.3958 615.396 14 616.562 11.625C618.021 8.5 620.167 6.125 623 4.5C625.833 2.875 629.229 2.0625 633.188 2.0625C638.354 2.0625 642.604 3.47917 645.938 6.3125C649.271 9.10417 650.938 12.7083 650.938 17.125C650.938 20.375 650.083 23.2708 648.375 25.8125C646.667 28.3125 643.896 30.7708 640.062 33.1875C637.354 34.9375 635.5 36.1667 634.5 36.875ZM625.5 42.4375C622.042 44.5625 619.354 47.5208 617.438 51.3125C615.521 55.1042 614.562 59.3333 614.562 64C614.562 67.2083 615.062 70.3125 616.062 73.3125C617.062 76.3125 618.417 78.8542 620.125 80.9375C621.708 82.8125 623.604 84.2708 625.812 85.3125C628.062 86.3542 630.417 86.875 632.875 86.875C636.75 86.875 640.208 85.6667 643.25 83.25C644.375 82.3333 645.396 81.3125 646.312 80.1875C647.229 79.0625 648.375 77.4167 649.75 75.25L625.5 42.4375ZM633.312 35.5C635.271 33.9583 636.729 32.6042 637.688 31.4375C638.688 30.2708 639.562 28.875 640.312 27.25C641.771 24.1667 642.5 20.8542 642.5 17.3125C642.5 13.1458 641.5 9.83333 639.5 7.375C637.5 4.91667 634.812 3.6875 631.438 3.6875C628.521 3.6875 626.167 4.625 624.375 6.5C622.583 8.375 621.688 10.8125 621.688 13.8125C621.688 15.6042 622.042 17.3958 622.75 19.1875C623.5 20.9792 624.896 23.4375 626.938 26.5625C628.896 29.5625 631.021 32.5417 633.312 35.5Z" stroke="#AB8A29"/>
<path d="M524 34.625C524.583 37.0417 524.875 39.2917 524.875 41.375V42.375C530.042 37.2917 536.188 34.75 543.312 34.75C548.646 34.75 552.938 36 556.188 38.5C559.396 40.9583 561 44.4583 561 49V75.5C561 78.3333 561.167 80.4167 561.5 81.75C561.833 83.0417 562.479 84.125 563.438 85C564.604 86.125 566.75 86.9792 569.875 87.5625V88.8125H542.312V87.5625C544.812 87.2292 546.604 86.7708 547.688 86.1875C548.771 85.5625 549.646 84.5208 550.312 83.0625C550.771 82.1042 551.083 80.6667 551.25 78.75C551.458 76.7917 551.562 74 551.562 70.375V57.125C551.562 52.5833 551.396 49.25 551.062 47.125C550.771 45 550.188 43.2917 549.312 42C548.354 40.5417 546.979 39.4167 545.188 38.625C543.396 37.7917 541.417 37.375 539.25 37.375C536.917 37.375 534.729 37.8333 532.688 38.75C530.688 39.6667 529.104 40.9167 527.938 42.5C526.688 44.1667 525.854 46.0625 525.438 48.1875C525.062 50.2708 524.875 53.75 524.875 58.625V70.875L524.938 75.5C524.938 78.3333 525.104 80.4167 525.438 81.75C525.771 83.0417 526.417 84.125 527.375 85C528.542 86.125 530.688 86.9792 533.812 87.5625V88.8125H506.25V87.5625C508.75 87.2292 510.542 86.7708 511.625 86.1875C512.708 85.5625 513.583 84.5208 514.25 83.0625C514.708 82.1042 515.021 80.6667 515.188 78.75C515.396 76.7917 515.5 73.9792 515.5 70.3125V54.875C515.5 50.5833 515.396 47.5833 515.188 45.875C514.979 44.125 514.521 42.7083 513.812 41.625C513.104 40.4583 512.25 39.625 511.25 39.125C510.25 38.5833 508.812 38.25 506.938 38.125V36.875L524 34.625Z" stroke="#AB8A29"/>
<path d="M479.562 44.375C481.062 41.75 482.75 39.7708 484.625 38.4375C488.083 35.9792 492.021 34.75 496.438 34.75C499.146 34.75 501.208 35.3542 502.625 36.5625C503.917 37.6458 504.562 38.9792 504.562 40.5625C504.562 41.7292 504.167 42.6875 503.375 43.4375C502.625 44.1875 501.646 44.5625 500.438 44.5625C499.021 44.5625 497.792 43.9792 496.75 42.8125L494.812 40.6875C493.271 39.0625 491.458 38.25 489.375 38.25C486.542 38.25 484.333 40.0833 482.75 43.75C481.167 47.4167 480.375 52.5208 480.375 59.0625V70.75L480.438 75.5C480.438 78.3333 480.604 80.4167 480.938 81.75C481.271 83.0417 481.917 84.125 482.875 85C484.042 86.125 486.188 86.9792 489.312 87.5625V88.8125H461.75V87.5625C464.25 87.2292 466.042 86.7708 467.125 86.1875C468.208 85.5625 469.083 84.5208 469.75 83.0625C470.208 82.1042 470.521 80.6667 470.688 78.75C470.896 76.7917 471 73.9792 471 70.3125V54.875C471 50.5833 470.896 47.5833 470.688 45.875C470.479 44.125 470.021 42.7083 469.312 41.625C468.604 40.4583 467.75 39.625 466.75 39.125C465.75 38.5833 464.312 38.25 462.438 38.125V36.875L478.5 34.625C479.208 38.4167 479.562 41.6667 479.562 44.375Z" stroke="#AB8A29"/>
<path d="M397.625 62.4375C397.625 55.6875 400.125 49.6667 405.125 44.375C411.208 37.9583 418.479 34.75 426.938 34.75C435.396 34.75 442.646 37.9583 448.688 44.375C453.688 49.7083 456.188 55.75 456.188 62.5C456.188 69.1667 453.812 75.1042 449.062 80.3125C443.229 86.7292 435.854 89.9375 426.938 89.9375C418.021 89.9375 410.625 86.7292 404.75 80.3125C402.458 77.8125 400.688 75.0208 399.438 71.9375C398.229 68.8542 397.625 65.6875 397.625 62.4375ZM409 61.75C409 69 410.625 75.1458 413.875 80.1875C417.542 85.8125 422.021 88.625 427.312 88.625C429.562 88.625 431.75 88 433.875 86.75C436 85.5 437.833 83.75 439.375 81.5C441 79.1667 442.312 76.25 443.312 72.75C444.312 69.2083 444.812 65.7917 444.812 62.5C444.812 59.0833 444.271 55.6458 443.188 52.1875C442.146 48.6875 440.729 45.6875 438.938 43.1875C435.521 38.4792 431.333 36.125 426.375 36.125C421.667 36.125 417.604 38.6042 414.188 43.5625C410.729 48.5208 409 54.5833 409 61.75Z" stroke="#AB8A29"/>
<path d="M350.125 63.5625L361.5 51.125C363.833 48.5 365.396 46.5625 366.188 45.3125C366.979 44.0208 367.375 42.7292 367.375 41.4375C367.375 39.6458 366.458 38.3958 364.625 37.6875C363.833 37.3542 362.354 37.125 360.188 37V35.6875H384.25V37C381.208 37 378.75 37.5208 376.875 38.5625C375 39.6042 372.542 41.7708 369.5 45.0625L367 47.875L360.188 55.1875L376.312 73.3125C377.646 74.7708 378.521 75.7083 378.938 76.125L381.75 79C384 81.25 385.625 82.7917 386.625 83.625C387.625 84.4583 388.812 85.25 390.188 86C391.771 86.8333 393.812 87.3542 396.312 87.5625V88.8125H367V87.5625C368.75 87.3958 369.979 87.1042 370.688 86.6875C371.688 86.0625 372.188 85.1875 372.188 84.0625C372.188 82.8542 371.583 81.5833 370.375 80.25L369.062 78.75L353.938 62L350.125 66.1875V70.75L350.188 75.5C350.188 78.3333 350.354 80.4167 350.688 81.75C351.021 83.0417 351.667 84.125 352.625 85C353.792 86.125 355.938 86.9792 359.062 87.5625V88.8125H331.5V87.5625C334 87.2292 335.792 86.7708 336.875 86.1875C337.958 85.5625 338.833 84.5208 339.5 83.0625C339.958 82.1042 340.271 80.6667 340.438 78.75C340.646 76.7917 340.75 73.9792 340.75 70.3125V21.25C340.75 17 340.646 14 340.438 12.25C340.229 10.5 339.771 9.08333 339.062 8C338.354 6.83333 337.5 6 336.5 5.5C335.5 5 334.062 4.6875 332.188 4.5625V3.25L350.125 1V63.5625Z" stroke="#AB8A29"/>
<path d="M330.312 82.75L331.375 83.375C329.875 87.75 326.438 89.9375 321.062 89.9375C318.104 89.9375 315.646 89.2083 313.688 87.75C312.396 86.7917 311.062 85.125 309.688 82.75C306.896 85.25 304.792 86.8958 303.375 87.6875C300.667 89.1875 297.521 89.9375 293.938 89.9375C289.354 89.9375 285.708 88.8333 283 86.625C280.333 84.4167 279 81.4375 279 77.6875C279 74.2292 280.104 71.3333 282.312 69C283.562 67.7083 285 66.6875 286.625 65.9375C288.25 65.1458 290.604 64.3542 293.688 63.5625C297.312 62.6458 299.979 61.875 301.688 61.25C303.438 60.625 304.896 59.875 306.062 59C307.396 58.0417 308.312 56.9167 308.812 55.625C309.312 54.3333 309.562 52.5417 309.562 50.25C309.562 45.375 308.646 41.8125 306.812 39.5625C305.979 38.5208 304.896 37.6875 303.562 37.0625C302.271 36.4375 300.917 36.125 299.5 36.125C297.792 36.125 296.271 36.5625 294.938 37.4375C293.604 38.3125 292.604 39.5208 291.938 41.0625L290.375 44.6875C289.542 46.6458 288.042 47.625 285.875 47.625C284.458 47.625 283.271 47.1667 282.312 46.25C281.354 45.2917 280.875 44.1042 280.875 42.6875C280.875 40.5625 282.375 38.7708 285.375 37.3125C287 36.5625 289 35.9583 291.375 35.5C293.792 35 296.146 34.75 298.438 34.75C301.021 34.75 303.708 35.0833 306.5 35.75C309.292 36.4167 311.625 37.2708 313.5 38.3125C316.208 39.8542 317.896 41.8542 318.562 44.3125C318.896 45.5625 319.062 47.6667 319.062 50.625V73.75C319.062 77.6667 319.229 80.3333 319.562 81.75C320.271 84.7083 321.979 86.1875 324.688 86.1875C325.979 86.1875 326.979 85.9583 327.688 85.5C328.438 85.0417 329.312 84.125 330.312 82.75ZM309.688 58.125C307.438 60 304.958 61.6458 302.25 63.0625C299.208 64.6875 297.104 65.9167 295.938 66.75C294.771 67.5833 293.708 68.5833 292.75 69.75C290.792 72.1667 289.812 74.9792 289.812 78.1875C289.812 80.9375 290.562 83.2083 292.062 85C293.604 86.7917 295.542 87.6875 297.875 87.6875C299.917 87.6875 301.833 87.0625 303.625 85.8125C305.458 84.5208 306.833 82.8125 307.75 80.6875C309.042 77.8958 309.688 73.8542 309.688 68.5625V58.125Z" stroke="#AB8A29"/>
<path d="M228.375 1V43.8125C229.833 42.0208 231.125 40.625 232.25 39.625C233.375 38.625 234.729 37.75 236.312 37C239.354 35.5 242.812 34.75 246.688 34.75C251.604 34.75 255.667 35.7292 258.875 37.6875C261.167 39.1458 262.729 40.9375 263.562 43.0625C264.438 45.1458 264.875 48.2917 264.875 52.5V70.75L264.938 75.5C264.938 78.3333 265.104 80.4167 265.438 81.75C265.771 83.0417 266.417 84.125 267.375 85C268.542 86.125 270.688 86.9792 273.812 87.5625V88.8125H246.25V87.5625C248.458 87.2708 250.021 86.9167 250.938 86.5C251.896 86.0833 252.75 85.375 253.5 84.375C254.25 83.3333 254.771 81.9167 255.062 80.125C255.354 78.3333 255.5 75.6875 255.5 72.1875V52.375C255.5 49.375 255.271 47 254.812 45.25C254.354 43.5 253.583 41.9792 252.5 40.6875C250.375 38.2292 247.375 37 243.5 37C233.417 37 228.375 44.9583 228.375 60.875V70.875L228.438 75.5C228.438 78.3333 228.604 80.4167 228.938 81.75C229.271 83.0417 229.917 84.125 230.875 85C232.042 86.125 234.188 86.9792 237.312 87.5625V88.8125H209.75V87.5625C212.25 87.2292 214.042 86.7708 215.125 86.1875C216.208 85.5625 217.083 84.5208 217.75 83.0625C218.208 82.1042 218.521 80.6667 218.688 78.75C218.896 76.7917 219 73.9792 219 70.3125V21.25C219 17 218.896 14 218.688 12.25C218.479 10.5 218.021 9.08333 217.312 8C216.604 6.83333 215.75 6 214.75 5.5C213.75 5 212.312 4.6875 210.438 4.5625V3.25L228.375 1Z" stroke="#AB8A29"/>
<path d="M203.25 77L204.5 77.4375C203.042 81.8542 200.812 85.0417 197.812 87C194.812 88.9583 190.688 89.9375 185.438 89.9375C177.021 89.9375 170.417 87.4375 165.625 82.4375C160.958 77.5208 158.625 71.3125 158.625 63.8125C158.625 60.1458 159.271 56.5208 160.562 52.9375C161.854 49.3542 163.625 46.2917 165.875 43.75C168.417 40.8333 171.521 38.6042 175.188 37.0625C178.896 35.5208 182.938 34.75 187.312 34.75C193.354 34.75 198.083 36.1042 201.5 38.8125C203.583 40.4792 204.625 42.3125 204.625 44.3125C204.625 45.6458 204.188 46.7708 203.312 47.6875C202.438 48.5625 201.375 49 200.125 49C197.417 49 195.417 47.0208 194.125 43.0625C193.542 41.2292 193.062 39.9792 192.688 39.3125C192.354 38.6458 191.854 38.0625 191.188 37.5625C189.896 36.6042 188.312 36.125 186.438 36.125C183.979 36.125 181.708 36.8125 179.625 38.1875C177.792 39.3958 176.229 40.9167 174.938 42.75C173.688 44.5417 172.583 46.8125 171.625 49.5625C170.167 53.7708 169.438 57.8958 169.438 61.9375C169.438 65.6458 170.104 69.2708 171.438 72.8125C172.771 76.3542 174.583 79.3125 176.875 81.6875C180.458 85.4375 184.667 87.3125 189.5 87.3125C193.5 87.3125 196.812 86.0417 199.438 83.5C200.771 82.1667 202.042 80 203.25 77Z" stroke="#AB8A29"/>
<path d="M92.375 62.4375C92.375 55.6875 94.875 49.6667 99.875 44.375C105.958 37.9583 113.229 34.75 121.688 34.75C130.146 34.75 137.396 37.9583 143.438 44.375C148.438 49.7083 150.938 55.75 150.938 62.5C150.938 69.1667 148.562 75.1042 143.812 80.3125C137.979 86.7292 130.604 89.9375 121.688 89.9375C112.771 89.9375 105.375 86.7292 99.5 80.3125C97.2083 77.8125 95.4375 75.0208 94.1875 71.9375C92.9792 68.8542 92.375 65.6875 92.375 62.4375ZM103.75 61.75C103.75 69 105.375 75.1458 108.625 80.1875C112.292 85.8125 116.771 88.625 122.062 88.625C124.312 88.625 126.5 88 128.625 86.75C130.75 85.5 132.583 83.75 134.125 81.5C135.75 79.1667 137.062 76.25 138.062 72.75C139.062 69.2083 139.562 65.7917 139.562 62.5C139.562 59.0833 139.021 55.6458 137.938 52.1875C136.896 48.6875 135.479 45.6875 133.688 43.1875C130.271 38.4792 126.083 36.125 121.125 36.125C116.417 36.125 112.354 38.6042 108.938 43.5625C105.479 48.5208 103.75 54.5833 103.75 61.75Z" stroke="#AB8A29"/>
<path d="M27.8125 45.3125L54.25 19.0625C56.875 16.4792 58.5 14.7292 59.125 13.8125C59.7917 12.8542 60.125 11.8125 60.125 10.6875C60.125 8.64583 59.125 7.10417 57.125 6.0625C56.0833 5.5625 54.3333 5.1875 51.875 4.9375V3.5H78.8125V4.9375C76.9792 5.10417 75.4375 5.41667 74.1875 5.875C72.9792 6.29167 71.6458 7.02083 70.1875 8.0625C68.5625 9.22917 65.7708 11.7083 61.8125 15.5L41.5625 34.9375L70.375 71.6875L73.9375 76.25C76.5625 79.5 79.2917 82.0417 82.125 83.875C83.8333 85 85.3333 85.8125 86.625 86.3125C87.9167 86.7708 89.5417 87.125 91.5 87.375V88.8125H50.1875V87.375C53.3125 87.125 55.5625 86.6042 56.9375 85.8125C58.3125 85.0208 59 83.8542 59 82.3125C59 80.6458 58.1458 78.5208 56.4375 75.9375C55.6042 74.6875 54.0417 72.5208 51.75 69.4375C49.4583 66.3542 47.5208 63.8542 45.9375 61.9375L31.875 44.5L27.8125 48.5V69.1875C27.8125 73.4375 28.0417 76.6042 28.5 78.6875C29 80.7292 29.8958 82.4167 31.1875 83.75C32.3125 84.9167 33.6042 85.7917 35.0625 86.375C36.5625 86.9167 38.5208 87.25 40.9375 87.375V88.8125H1V87.375C3.41667 87.25 5.35417 86.9167 6.8125 86.375C8.3125 85.7917 9.625 84.9167 10.75 83.75C12.0833 82.4167 12.9792 80.7292 13.4375 78.6875C13.8958 76.6458 14.125 73.4792 14.125 69.1875V23.125C14.125 18.8333 13.8958 15.6667 13.4375 13.625C12.9792 11.5833 12.0833 9.89583 10.75 8.5625C9.625 7.35417 8.3125 6.47917 6.8125 5.9375C5.3125 5.39583 3.375 5.0625 1 4.9375V3.5H40.9375V4.9375C38.5625 5.0625 36.625 5.39583 35.125 5.9375C33.6667 6.47917 32.3542 7.35417 31.1875 8.5625C29.8958 9.89583 29 11.6042 28.5 13.6875C28.0417 15.7292 27.8125 18.875 27.8125 23.125V45.3125Z" stroke="#AB8A29"/>
</svg>
